<svg width="32" height="12" viewBox="0 0 32 12" fill="none" xmlns="http://www.w3.org/2000/svg">
<path fill-rule="evenodd" clip-rule="evenodd" d="M3.6987 3.61186L0 7.22377V9.61186V12H2.46969H4.93942L7.38535 9.61195L9.83132 7.22386V9.61195V12H12.3014H14.7714L17.2048 9.62353C18.5432 8.31647 19.6546 7.24706 19.6745 7.24706C19.6945 7.24706 19.7108 8.31647 19.7108 9.62353V12H22.1567H24.6026L28.3013 8.38814L32 4.77624V2.38814V0H29.5303H27.0606L24.6147 2.38805L22.1687 4.77614V2.38805V0H19.6986H17.2286L14.7952 2.37647C13.4568 3.68353 12.3454 4.75294 12.3255 4.75294C12.3055 4.75294 12.2892 3.68353 12.2892 2.37647V0H9.84328H7.39735L3.6987 3.61186Z" fill="currentColor"/>
</svg>
