<svg width="93" height="93" viewBox="0 0 93 93" fill="none" xmlns="http://www.w3.org/2000/svg">
<path d="M3.8147e-06 44L30.3431 44C33.9652 44 37.4388 42.5612 40 40C42.5612 37.4388 44 33.9652 44 30.3431L44 0L36 0L36 30.3438L14.5439 8.8877L8.8877 14.5439L30.3438 36L3.8147e-06 36V44Z" fill="currentColor"/>
<path d="M93 49H62.6569C59.0348 49 55.5612 50.4388 53 53C50.4388 55.5612 49 59.0348 49 62.6569V93H57V62.6562L78.4561 84.1123L84.1123 78.4561L62.6563 57H93V49Z" fill="currentColor"/>
<path d="M49 0L49 30.3431C49 33.9652 50.4388 37.4388 53 40C55.5612 42.5612 59.0348 44 62.6569 44L93 44V36L62.6563 36L84.1123 14.5439L78.4561 8.8877L57 30.3438L57 0H49Z" fill="currentColor"/>
<path d="M44 93V62.6569C44 59.0348 42.5612 55.5612 40 53C37.4388 50.4388 33.9652 49 30.3431 49H0L0 57H30.3438L8.8877 78.4561L14.5439 84.1123L36 62.6562V93H44Z" fill="currentColor"/>
</svg>
